<svg xmlns="http://www.w3.org/2000/svg" viewBox="0 0 18 18">
  <style>
    <![CDATA[:root>svg{display:none}:root>svg:target{display:block}]]>
  </style>
  <svg width="18" height="18" viewBox="0 0 18 18" fill="none" xmlns="http://www.w3.org/2000/svg" id="solana">
    <g clip-path="url(#clip0_15_2)">
      <path d="m17.907 13.524-2.971 3.104a.69.69 0 0 1-.505.214H.345a.352.352 0 0 1-.19-.055.328.328 0 0 1-.063-.51l2.974-3.105a.69.69 0 0 1 .504-.214h14.085c.067 0 .133.02.19.055a.329.329 0 0 1 .063.51Zm-2.971-6.252a.69.69 0 0 0-.505-.214H.345a.352.352 0 0 0-.19.055.328.328 0 0 0-.063.51l2.974 3.105a.69.69 0 0 0 .504.214h14.085c.067 0 .133-.02.19-.055a.33.33 0 0 0 .063-.51l-2.972-3.105ZM.345 5.042h14.086a.706.706 0 0 0 .505-.214l2.971-3.104a.333.333 0 0 0 .064-.363.34.34 0 0 0-.127-.148.352.352 0 0 0-.189-.055H3.57a.706.706 0 0 0-.504.214L.094 4.477a.333.333 0 0 0-.065.362c.027.06.071.112.127.148a.352.352 0 0 0 .189.055Z" fill="url(#paint0_linear_15_2)"/>
    </g>
    <defs>
      <linearGradient id="paint0_linear_15_2" x1="1.519" y1="17.215" x2="15.86" y2=".621" gradientUnits="userSpaceOnUse">
        <stop offset=".08" stop-color="#9945FF"/>
        <stop offset=".3" stop-color="#8752F3"/>
        <stop offset=".5" stop-color="#5497D5"/>
        <stop offset=".6" stop-color="#43B4CA"/>
        <stop offset=".72" stop-color="#28E0B9"/>
        <stop offset=".97" stop-color="#19FB9B"/>
      </linearGradient>
      <clipPath id="clip0_15_2">
        <path fill="#fff" d="M0 0h18v18H0z"/>
      </clipPath>
    </defs>
  </svg>
  <svg width="18" height="18" viewBox="0 0 18 18" fill="none" xmlns="http://www.w3.org/2000/svg" id="ethereum">
    <g clip-path="url(#clip0_15_4)">
      <mask id="mask0_15_4" style="mask-type:luminance" maskUnits="userSpaceOnUse" x="0" y="0" width="18" height="18">
        <path d="M18 0H0v18h18V0Z" fill="#fff"/>
      </mask>
      <g mask="url(#mask0_15_4)">
        <path d="m8.944 0-.121.41v11.9l.12.12 5.524-3.265L8.944 0Z" fill="#343434"/>
        <path d="M8.944 0 3.42 9.165l5.524 3.265V0Z" fill="#8C8C8C"/>
        <path d="m8.943 13.475-.068.083v4.24l.068.198 5.527-7.784-5.527 3.263Z" fill="#3C3C3B"/>
        <path d="M8.944 17.996v-4.52L3.42 10.211l5.524 7.784Z" fill="#8C8C8C"/>
        <path d="m8.943 12.43 5.524-3.265-5.524-2.51v5.775Z" fill="#141414"/>
        <path d="m3.42 9.165 5.523 3.265V6.654L3.42 9.164Z" fill="#393939"/>
      </g>
    </g>
    <defs>
      <clipPath id="clip0_15_4">
        <path fill="#fff" d="M0 0h18v18H0z"/>
      </clipPath>
    </defs>
  </svg>
  <svg width="18" height="18" viewBox="0 0 18 18" fill="none" xmlns="http://www.w3.org/2000/svg" id="binance">
    <g clip-path="url(#clip0_15_15)">
      <mask id="mask0_15_15" style="mask-type:luminance" maskUnits="userSpaceOnUse" x="0" y="0" width="18" height="18">
        <path d="M18 0H0v18h18V0Z" fill="#fff"/>
      </mask>
      <g mask="url(#mask0_15_15)">
        <path d="m5.504 7.564 3.497-3.496 3.497 3.497 2.034-2.034L9.001 0 3.47 5.53l2.033 2.034ZM0 9.001l2.034-2.035L4.068 9l-2.034 2.033L0 9Zm5.504 1.436 3.497 3.495 3.497-3.497 2.035 2.033L9.001 18l-5.53-5.53-.003-.004 2.036-2.03ZM13.932 9l2.034-2.034L18.001 9l-2.034 2.033L13.932 9Z" fill="#F3BA2F"/>
        <path d="M11.063 9 9.001 6.936 7.475 8.46l-.176.176-.361.361L6.935 9l.003.003L9 11.065l2.063-2.064h-.001" fill="#F3BA2F"/>
      </g>
    </g>
    <defs>
      <clipPath id="clip0_15_15">
        <path fill="#fff" d="M0 0h18v18H0z"/>
      </clipPath>
    </defs>
  </svg>
  <svg width="18" height="18" viewBox="0 0 18 18" fill="none" xmlns="http://www.w3.org/2000/svg" id="shardeum-black">
    <path d="M3.923 7.428.718 12.98l1.877.006c1.68.005 1.88.003 1.9-.027.016-.02 1.035-1.782 2.267-3.917a460.415 460.415 0 0 1 2.254-3.884c.007 0 1.02 1.747 2.252 3.882a937.656 937.656 0 0 0 2.267 3.917c.024.032.181.034 1.903.03l1.875-.007-3.197-5.54c-1.76-3.046-3.203-5.545-3.21-5.55a70.21 70.21 0 0 0-.943 1.608c-.515.89-.94 1.617-.947 1.617-.006 0-.425-.715-.932-1.592-.506-.874-.928-1.602-.939-1.617-.01-.02-1.091 1.832-3.222 5.523Z" fill="#000"/>
    <path d="M8.59 8.39c-.976.207-1.679 1.132-1.608 2.122.032.447.198.852.5 1.218.206.249.643.519 1.013.625.147.043.22.05.521.05.413 0 .558-.033.905-.203a2.029 2.029 0 0 0 .85-2.858 2.465 2.465 0 0 0-.701-.705 2.094 2.094 0 0 0-1.48-.249Zm-4.12 4.625c-.01.015-.432.745-.938 1.624l-.922 1.596 3.203.007c1.763.002 4.644.002 6.407 0l3.203-.007-.934-1.617L13.556 13l-4.535-.006c-3.582-.004-4.538.002-4.55.021Z" fill="#000"/>
  </svg>
  <svg width="18" height="18" viewBox="0 0 18 18" fill="none" xmlns="http://www.w3.org/2000/svg" id="polygon">
    <path d="M13.594 5.93c-.328-.188-.75-.188-1.125 0L9.844 7.477l-1.781.984-2.579 1.547c-.328.187-.75.187-1.125 0L2.344 8.789a1.143 1.143 0 0 1-.563-.984V5.46c0-.375.188-.75.563-.984l2.015-1.172c.329-.188.75-.188 1.125 0L7.5 4.523c.328.188.563.563.563.985v1.547l1.78-1.032V4.43c0-.375-.187-.75-.562-.985l-3.75-2.203c-.328-.187-.75-.187-1.125 0L.563 3.492A1.031 1.031 0 0 0 0 4.43v4.406c0 .375.188.75.563.984l3.796 2.203c.329.188.75.188 1.125 0l2.579-1.5 1.78-1.03 2.579-1.5c.328-.188.75-.188 1.125 0l2.015 1.171c.329.188.563.563.563.984v2.344c0 .375-.188.75-.563.985l-1.968 1.171c-.328.188-.75.188-1.125 0l-2.016-1.171a1.143 1.143 0 0 1-.562-.985v-1.5l-1.782 1.031v1.547c0 .375.188.75.563.985l3.797 2.203c.328.187.75.187 1.125 0l3.797-2.203c.328-.188.562-.563.562-.985V9.117c0-.375-.187-.75-.562-.984L13.594 5.93Z" fill="#8247E5"/>
  </svg>
  <svg width="18" height="18" viewBox="0 0 18 18" fill="none" xmlns="http://www.w3.org/2000/svg" id="stacks">
    <g clip-path="url(#clip0_15_29)">
      <path d="M9 18A9 9 0 1 0 9 0a9 9 0 0 0 0 18Z" fill="#5546FF"/>
      <path d="m12.672 13.742-1.937-3.041h2.782V9.55H4.393v1.15h2.782l-1.937 3.041H6.68l2.275-3.57 2.275 3.57h1.442Zm.845-5.305v-1.15H10.79l1.915-3.007h-1.453L8.955 7.907 6.657 4.28H5.204l1.915 3.008H4.393v1.16l9.124-.011Z" fill="#fff"/>
    </g>
    <defs>
      <clipPath id="clip0_15_29">
        <path fill="#fff" d="M0 0h18v18H0z"/>
      </clipPath>
    </defs>
  </svg>
  <svg width="18" height="18" viewBox="0 0 18 18" fill="none" xmlns="http://www.w3.org/2000/svg" id="shardeum-white">
    <path d="M3.923 7.428.718 12.98l1.877.006c1.68.005 1.88.003 1.9-.027.016-.02 1.035-1.782 2.267-3.917a460.415 460.415 0 0 1 2.254-3.884c.007 0 1.02 1.747 2.252 3.882a937.656 937.656 0 0 0 2.267 3.917c.024.032.181.034 1.903.03l1.875-.007-3.197-5.54c-1.76-3.046-3.203-5.545-3.21-5.55a70.21 70.21 0 0 0-.943 1.608c-.515.89-.94 1.617-.947 1.617-.006 0-.425-.715-.932-1.592-.506-.874-.928-1.602-.939-1.617-.01-.02-1.091 1.832-3.222 5.523Z" fill="#fff"/>
    <path d="M8.59 8.39c-.976.207-1.679 1.132-1.608 2.122.032.447.198.852.5 1.218.206.249.643.519 1.013.625.147.043.22.05.521.05.413 0 .558-.033.905-.203a2.029 2.029 0 0 0 .85-2.858 2.465 2.465 0 0 0-.701-.705 2.094 2.094 0 0 0-1.48-.249Zm-4.12 4.625c-.01.015-.432.745-.938 1.624l-.922 1.596 3.203.007c1.763.002 4.644.002 6.407 0l3.203-.007-.934-1.617L13.556 13l-4.535-.006c-3.582-.004-4.538.002-4.55.021Z" fill="#fff"/>
  </svg>
</svg>
