<svg xmlns="http://www.w3.org/2000/svg" viewBox="0 0 40 40">
  <style>
    <![CDATA[:root>svg{display:none}:root>svg:target{display:block}]]>
  </style>
  <svg width="40" height="40" viewBox="0 0 40 40" fill="none" xmlns="http://www.w3.org/2000/svg" id="metamask">
    <path d="M34.4132 4.45679L21.921 13.7349L24.2311 8.26093L34.4132 4.45679Z" fill="#E2761B" stroke="#E2761B" stroke-width="0.126805" stroke-linecap="round" stroke-linejoin="round"/>
    <path d="M5.57437 4.45679L17.9661 13.8228L15.769 8.26093L5.57437 4.45679ZM29.9184 25.9634L26.5913 31.0607L33.71 33.0192L35.7564 26.0764L29.9184 25.9634ZM4.2561 26.0764L6.29 33.0192L13.4086 31.0607L10.0816 25.9634L4.2561 26.0764Z" fill="#E4761B" stroke="#E4761B" stroke-width="0.126805" stroke-linecap="round" stroke-linejoin="round"/>
    <path d="M13.0069 17.351L11.0232 20.3517L18.0916 20.6655L17.8405 13.0698L13.0069 17.351ZM26.9805 17.351L22.0841 12.9819L21.9209 20.6655L28.9767 20.3517L26.9805 17.351ZM13.4086 31.061L17.6522 28.9895L13.9862 26.1269L13.4086 31.061ZM22.3352 28.9895L26.5913 31.061L26.0012 26.1269L22.3352 28.9895Z" fill="#E4761B" stroke="#E4761B" stroke-width="0.126805" stroke-linecap="round" stroke-linejoin="round"/>
    <path d="M26.5915 31.0611L22.3354 28.9895L22.6743 31.7641L22.6367 32.9317L26.5915 31.0611ZM13.4088 31.0611L17.3636 32.9317L17.3385 31.7641L17.6524 28.9895L13.4088 31.0611Z" fill="#D7C1B3" stroke="#D7C1B3" stroke-width="0.126805" stroke-linecap="round" stroke-linejoin="round"/>
    <path d="M17.4262 24.2939L13.8857 23.2519L16.3842 22.1094L17.4262 24.2939ZM22.5612 24.2939L23.6033 22.1094L26.1142 23.2519L22.5612 24.2939Z" fill="#233447" stroke="#233447" stroke-width="0.126805" stroke-linecap="round" stroke-linejoin="round"/>
    <path d="M13.4087 31.0609L14.0114 25.9636L10.0817 26.0766L13.4087 31.0609ZM25.9888 25.9636L26.5914 31.0609L29.9185 26.0766L25.9888 25.9636ZM28.9768 20.3516L21.921 20.6654L22.5738 24.2938L23.6159 22.1093L26.1269 23.2517L28.9768 20.3516ZM13.8858 23.2517L16.3968 22.1093L17.4263 24.2938L18.0917 20.6654L11.0233 20.3516L13.8858 23.2517Z" fill="#CD6116" stroke="#CD6116" stroke-width="0.126805" stroke-linecap="round" stroke-linejoin="round"/>
    <path d="M11.0232 20.3516L13.9862 26.1268L13.8857 23.2517L11.0232 20.3516ZM26.1268 23.2517L26.0012 26.1268L28.9767 20.3516L26.1268 23.2517ZM18.0916 20.6654L17.4262 24.2938L18.2548 28.575L18.4432 22.9379L18.0916 20.6654ZM21.9209 20.6654L21.5819 22.9253L21.7325 28.575L22.5737 24.2938L21.9209 20.6654Z" fill="#E4751F" stroke="#E4751F" stroke-width="0.126805" stroke-linecap="round" stroke-linejoin="round"/>
    <path d="M22.5738 24.2938L21.7326 28.575L22.3352 28.9893L26.0012 26.1268L26.1268 23.2517L22.5738 24.2938ZM13.8857 23.2517L13.9862 26.1268L17.6522 28.9893L18.2549 28.575L17.4262 24.2938L13.8857 23.2517Z" fill="#F6851B" stroke="#F6851B" stroke-width="0.126805" stroke-linecap="round" stroke-linejoin="round"/>
    <path d="M22.6367 32.9317L22.6743 31.7641L22.3605 31.4879H17.6273L17.3385 31.7641L17.3636 32.9317L13.4088 31.061L14.7899 32.191L17.5896 34.137H22.3981L25.2104 32.191L26.5915 31.061L22.6367 32.9317Z" fill="#C0AD9E" stroke="#C0AD9E" stroke-width="0.126805" stroke-linecap="round" stroke-linejoin="round"/>
    <path d="M22.3352 28.9895L21.7326 28.5752H18.2549L17.6523 28.9895L17.3384 31.7641L17.6271 31.4879H22.3604L22.6742 31.7641L22.3352 28.9895Z" fill="#161616" stroke="#161616" stroke-width="0.126805" stroke-linecap="round" stroke-linejoin="round"/>
    <path d="M34.9404 14.3375L36.0076 9.2151L34.4131 4.45679L22.3353 13.421L26.9806 17.3507L33.5469 19.2716L35.0032 17.5767L34.3755 17.1247L35.3799 16.2082L34.6015 15.6056L35.6059 14.8397L34.9404 14.3375ZM3.99255 9.2151L5.05972 14.3375L4.38176 14.8397L5.38615 15.6056L4.6203 16.2082L5.62469 17.1247L4.99695 17.5767L6.44076 19.2716L13.007 17.3507L17.6523 13.421L5.57447 4.45679L3.99255 9.2151Z" fill="#763D16" stroke="#763D16" stroke-width="0.126805" stroke-linecap="round" stroke-linejoin="round"/>
    <path d="M33.5468 19.2717L26.9805 17.3508L28.9768 20.3514L26.0012 26.1266L29.9184 26.0764H35.7564L33.5468 19.2717ZM13.0069 17.3508L6.44066 19.2717L4.2561 26.0764H10.0816L13.9862 26.1266L11.0232 20.3514L13.0069 17.3508ZM21.9209 20.6653L22.3352 13.4211L24.2435 8.26099H15.769L17.6522 13.4211L18.0916 20.6653L18.2423 22.9503L18.2548 28.5749H21.7326L21.7577 22.9503L21.9209 20.6653Z" fill="#F6851B" stroke="#F6851B" stroke-width="0.126805" stroke-linecap="round" stroke-linejoin="round"/>
  </svg>
  <svg width="40" height="40" viewBox="0 0 40 40" fill="none" xmlns="http://www.w3.org/2000/svg" id="phantom">
    <path d="M4.73312 36.25C9.8375 36.25 13.6738 31.9188 15.9631 28.4963C15.6844 29.2531 15.53 30.0106 15.53 30.7375C15.53 32.7363 16.705 34.16 19.0256 34.16C22.2119 34.16 25.615 31.4344 27.3781 28.4963C27.2544 28.92 27.1925 29.3138 27.1925 29.6775C27.1925 31.0706 27.9969 31.9488 29.6362 31.9488C34.8031 31.9488 40 23.0138 40 15.1988C40 9.11188 36.8444 3.75 28.925 3.75C15.0037 3.75 0 20.3481 0 31.0706C0 35.2806 2.32 36.25 4.73312 36.25ZM24.13 14.5331C24.13 13.0181 24.9962 11.9581 26.2644 11.9581C27.5019 11.9581 28.3681 13.0188 28.3681 14.5331C28.3681 16.0475 27.5019 17.1375 26.2644 17.1375C24.9956 17.1375 24.13 16.0475 24.13 14.5331ZM30.75 14.5331C30.75 13.0181 31.6163 11.9581 32.885 11.9581C34.1225 11.9581 34.9881 13.0188 34.9881 14.5331C34.9881 16.0475 34.1219 17.1375 32.885 17.1375C31.6163 17.1375 30.75 16.0475 30.75 14.5331Z" fill="#AB9FF2"/>
  </svg>
  <svg width="40" height="40" viewBox="0 0 40 40" fill="none" xmlns="http://www.w3.org/2000/svg" id="walletconnect">
    <g clip-path="url(#clip0_16_197)">
      <path d="M20.008 39.9839C31.0404 39.9839 39.9839 31.0404 39.9839 20.008C39.9839 8.97553 31.0404 0.0319824 20.008 0.0319824C8.97553 0.0319824 0.0319824 8.97553 0.0319824 20.008C0.0319824 31.0404 8.97553 39.9839 20.008 39.9839Z" fill="#3396FF"/>
      <path d="M12.2387 14.8977C16.5158 10.7167 23.4682 10.7167 27.7613 14.8977L28.2739 15.3943C28.4822 15.6026 28.4822 15.939 28.2739 16.1472L26.5118 17.8613C26.3997 17.9734 26.2235 17.9734 26.1273 17.8613L25.4225 17.1725C22.4269 14.257 17.5891 14.257 14.5935 17.1725L13.8406 17.9093C13.7285 18.0215 13.5523 18.0215 13.4561 17.9093L11.694 16.1953C11.4858 15.987 11.4858 15.6506 11.694 15.4424L12.2547 14.8977H12.2387ZM31.3977 18.454L32.9676 19.9918C33.1758 20.2001 33.1758 20.5365 32.9676 20.7447L25.8871 27.649C25.6788 27.8573 25.3264 27.8573 25.1181 27.649L20.0881 22.7471C20.04 22.6991 19.9439 22.6991 19.8959 22.7471L14.8658 27.649C14.6576 27.8573 14.3052 27.8573 14.0969 27.649L7.01642 20.7447C6.80817 20.5365 6.80817 20.2001 7.01642 19.9918L8.5863 18.454C8.79455 18.2457 9.14697 18.2457 9.35522 18.454L14.3853 23.3559C14.4333 23.4039 14.5294 23.4039 14.5775 23.3559L19.6075 18.454C19.8158 18.2457 20.1682 18.2457 20.3764 18.454L25.4065 23.3559C25.4545 23.4039 25.5507 23.4039 25.5987 23.3559L30.6288 18.454C30.837 18.2457 31.1894 18.2457 31.3977 18.454Z" fill="white"/>
    </g>
    <defs>
      <clipPath id="clip0_16_197">
        <rect width="40" height="40" fill="white"/>
      </clipPath>
    </defs>
  </svg>
  <svg width="40" height="40" viewBox="0 0 40 40" fill="none" xmlns="http://www.w3.org/2000/svg" id="haha">
    <g clip-path="url(#clip0_103_19)">
      <rect width="40" height="40" rx="7" fill="white"/>
      <path d="M6.33333 0C2.83553 0 0 2.83553 0 6.33333V15.087L8.66667 12.7648V8.66667H15.3333V17.8656L24.6667 15.3647V8.66667H31.3333V20.5L40 18.1777V6.33333C40 2.83553 37.1644 0 33.6667 0H6.33333Z" fill="url(#paint0_linear_103_19)"/>
      <path d="M40 25.0796L31.3333 27.4019V31.3333H24.6667V22.2666L15.3333 24.7675V31.3333H8.66667V19.6667L0 21.9889V33.6667C0 37.1645 2.83553 40 6.33333 40H33.6667C37.1644 40 40 37.1645 40 33.6667V25.0796Z" fill="url(#paint1_linear_103_19)"/>
    </g>
    <defs>
      <linearGradient id="paint0_linear_103_19" x1="40" y1="0" x2="-9.30414e-07" y2="40" gradientUnits="userSpaceOnUse">
        <stop stop-color="#ED6AFF"/>
        <stop offset="1" stop-color="#1FA5FE"/>
      </linearGradient>
      <linearGradient id="paint1_linear_103_19" x1="40" y1="3.24562e-05" x2="-1.87609e-06" y2="40" gradientUnits="userSpaceOnUse">
        <stop stop-color="#A37EFE"/>
        <stop offset="1" stop-color="#22A5FF"/>
      </linearGradient>
      <clipPath id="clip0_103_19">
        <rect width="40" height="40" fill="white"/>
      </clipPath>
    </defs>
  </svg>
  <svg width="40" height="40" viewBox="0 0 40 40" fill="none" xmlns="http://www.w3.org/2000/svg" id="stacks">
    <g clip-path="url(#clip0_102_12)">
      <path d="M20 40C31.0457 40 40 31.0457 40 20C40 8.95431 31.0457 0 20 0C8.95431 0 0 8.95431 0 20C0 31.0457 8.95431 40 20 40Z" fill="#5546FF"/>
      <path d="M28.1602 30.5382L23.8548 23.7798H30.0375V21.2266H9.76221V23.7798H15.9449L11.6396 30.5382H14.8436L19.8999 22.6033L24.9562 30.5382H28.1602ZM30.0375 18.7485V16.1953H23.98L28.2353 9.51196H25.0063L19.8999 17.572L14.7935 9.51196H11.5645L15.8198 16.1953H9.76221V18.7735L30.0375 18.7485Z" fill="white"/>
    </g>
    <defs>
      <clipPath id="clip0_102_12">
        <rect width="40" height="40" fill="white"/>
      </clipPath>
    </defs>
  </svg>
</svg>
